<?xml version="1.0" standalone="no"?>
<!DOCTYPE svg PUBLIC "-//W3C//DTD SVG 20010904//EN"
 "http://www.w3.org/TR/2001/REC-SVG-20010904/DTD/svg10.dtd">
<svg version="1.0" xmlns="http://www.w3.org/2000/svg"
 width="640.000000pt" height="640.000000pt" viewBox="0 0 640.000000 640.000000"
 preserveAspectRatio="xMidYMid meet">

<g transform="translate(0.000000,640.000000) scale(0.100000,-0.100000)"
fill="#000000" stroke="none">
<path d="M2370 6369 c-306 -83 -606 -211 -868 -371 -237 -145 -405 -279 -617
-492 -436 -439 -709 -930 -861 -1549 -23 -96 -24 -108 -24 -515 l0 -417 46 80
c68 118 100 162 250 350 176 221 272 367 355 541 59 125 71 143 103 158 45 21
96 13 129 -20 13 -13 47 -71 75 -129 83 -170 180 -321 365 -568 182 -242 231
-314 263 -384 10 -23 24 -41 29 -40 6 2 38 59 72 127 34 69 73 132 85 142 32
25 99 23 132 -3 15 -12 47 -62 73 -113 56 -113 112 -206 123 -206 4 0 10 46
12 103 l4 102 142 249 c78 137 142 251 142 253 0 1 13 24 29 50 73 120 531
945 531 957 0 7 -12 18 -27 25 -55 25 -145 108 -190 174 -110 165 -122 377
-31 551 63 119 219 245 336 271 l32 7 0 163 c0 189 4 216 36 249 34 34 79 40
123 18 52 -27 60 -59 60 -259 l1 -171 32 -7 c127 -28 278 -154 341 -285 89
-181 68 -402 -51 -560 -40 -53 -112 -117 -159 -142 -24 -13 -43 -29 -43 -36 0
-7 122 -230 272 -495 357 -634 439 -779 514 -917 l64 -115 0 -92 c0 -51 4 -93
9 -93 12 0 63 85 126 209 53 102 84 131 146 131 50 0 77 -30 137 -153 77 -157
70 -154 125 -56 26 46 133 199 238 339 205 275 286 400 374 582 34 70 66 123
81 133 39 25 78 29 118 10 32 -15 44 -33 104 -159 83 -171 164 -297 306 -476
208 -262 295 -388 346 -502 l19 -43 0 380 c1 391 -2 431 -44 610 -218 928
-853 1732 -1705 2160 -213 107 -393 175 -633 240 l-128 35 -707 -1 -707 -2
-105 -28z"/>
<path d="M3117 5490 c-88 -22 -164 -82 -214 -168 -26 -43 -28 -56 -28 -147 0
-92 2 -104 30 -154 33 -60 87 -110 154 -143 37 -18 63 -23 131 -23 75 0 92 4
144 30 117 59 181 170 174 305 -4 90 -30 149 -91 211 -75 75 -202 113 -300 89z"/>
<path d="M3142 4543 c-21 -37 -186 -331 -366 -652 -180 -321 -336 -598 -347
-615 -36 -59 -48 -57 314 -54 l332 3 5 125 c4 83 11 132 20 147 40 62 140 62
180 0 9 -15 16 -64 20 -147 l5 -125 325 -3 c179 -1 330 0 337 2 9 4 1 25 -24
67 -21 35 -196 344 -389 688 -193 344 -356 627 -362 629 -6 2 -28 -27 -50 -65z"/>
<path d="M752 3721 c-62 -110 -152 -235 -290 -405 -129 -158 -220 -293 -257
-380 l-28 -66 17 -107 c9 -58 19 -109 22 -112 8 -8 22 10 413 497 182 227 330
416 327 420 -2 4 -34 57 -71 117 -36 61 -70 114 -74 118 -4 4 -31 -33 -59 -82z"/>
<path d="M5536 3755 c-45 -86 -189 -297 -310 -455 -62 -80 -134 -176 -160
-213 -55 -78 -120 -214 -130 -270 -7 -35 -3 -43 69 -133 41 -53 87 -117 102
-142 49 -86 39 -82 204 -82 l147 0 4 179 c3 164 5 182 24 208 30 40 85 57 129
39 54 -23 59 -42 65 -241 l5 -180 95 -3 c133 -4 243 12 310 46 l55 28 22 109
c40 202 40 219 0 305 -44 97 -116 202 -267 390 -128 159 -252 336 -295 420
-14 27 -29 50 -33 50 -4 0 -20 -25 -36 -55z"/>
<path d="M975 3232 c-61 -75 -219 -272 -353 -438 -133 -166 -242 -306 -242
-313 0 -6 17 -11 42 -11 36 0 81 22 303 148 143 82 347 198 453 258 105 60
192 112 192 117 0 23 -253 367 -275 373 -5 2 -60 -59 -120 -134z"/>
<path d="M2327 3003 c-4 -3 -7 -85 -7 -181 l0 -174 46 -65 c66 -92 121 -216
134 -300 21 -136 -28 -284 -127 -380 l-53 -52 0 -339 c0 -339 0 -340 21 -345
27 -7 1630 -7 1682 0 l37 5 0 337 0 337 -53 55 c-102 105 -152 256 -129 382
17 93 54 177 121 279 l61 92 0 162 c0 89 -3 169 -6 178 -6 14 -91 16 -863 16
-472 0 -861 -3 -864 -7z m592 -557 c49 -26 51 -40 51 -417 0 -283 -3 -355 -14
-378 -24 -46 -87 -64 -141 -39 -53 24 -55 37 -55 418 0 239 4 358 11 373 28
54 91 72 148 43z m657 -4 c43 -34 44 -47 44 -412 0 -381 -2 -394 -55 -418 -54
-25 -122 -4 -144 45 -17 37 -14 721 3 752 27 49 110 67 152 33z"/>
<path d="M1793 2883 c-41 -67 -84 -125 -231 -313 -147 -188 -195 -300 -171
-406 21 -92 93 -134 229 -134 l50 0 1 108 c0 59 5 122 12 141 27 76 115 98
171 42 l31 -31 4 -131 3 -130 153 3 c177 3 185 7 225 101 49 112 14 199 -184
464 -73 98 -158 217 -189 266 -31 48 -58 87 -59 87 -2 0 -22 -30 -45 -67z"/>
<path d="M4484 2864 c-31 -49 -118 -170 -192 -269 -195 -260 -231 -350 -182
-462 40 -94 48 -98 225 -101 l153 -3 4 130 c3 120 5 131 27 155 49 53 123 49
165 -7 18 -25 21 -46 25 -154 l3 -126 84 6 c88 6 125 20 161 59 30 32 44 109
32 173 -18 97 -60 165 -267 429 -46 59 -105 141 -132 183 l-49 76 -57 -89z"/>
<path d="M1168 2622 c-142 -81 -258 -150 -258 -154 0 -5 69 -8 153 -8 172 0
161 -4 211 83 15 26 46 71 70 100 71 89 99 127 90 126 -5 0 -125 -66 -266
-147z"/>
<path d="M377 2243 c-4 -3 -7 -37 -7 -74 0 -78 27 -150 136 -359 124 -238 408
-624 472 -642 13 -4 77 -6 141 -5 l116 2 3 398 2 399 -31 66 c-23 48 -33 86
-38 141 l-6 76 -391 3 c-215 1 -393 -1 -397 -5z"/>
<path d="M5216 2238 c-3 -7 -6 -43 -9 -79 -3 -46 -14 -85 -36 -132 l-31 -65 2
-399 3 -398 120 -3 c66 -2 129 0 141 5 27 10 184 196 268 316 124 179 233 373
305 548 27 65 32 87 29 145 l-3 69 -393 3 c-309 2 -393 0 -396 -10z"/>
<path d="M1462 1488 l3 -323 308 -2 c169 -1 314 0 322 4 13 4 15 54 15 324 l0
319 -325 0 -325 0 2 -322z"/>
<path d="M4270 1491 c0 -296 1 -320 18 -324 29 -8 555 -9 595 -2 l37 7 0 319
0 319 -325 0 -325 0 0 -319z"/>
<path d="M880 946 c0 -11 183 -179 279 -255 341 -272 712 -466 1118 -585 150
-44 355 -88 364 -78 4 4 9 90 12 192 5 205 14 250 72 349 98 167 271 265 465
265 211 -1 389 -111 480 -297 49 -101 60 -167 60 -359 0 -81 4 -149 9 -152 12
-8 224 39 364 80 405 119 793 322 1132 594 84 67 265 235 265 245 0 3 -1039 5
-2310 5 -1270 0 -2310 -2 -2310 -4z"/>
<path d="M3074 599 c-74 -28 -137 -88 -175 -164 -30 -61 -31 -71 -37 -213 -2
-82 -2 -165 2 -185 l7 -37 324 0 325 0 0 138 c0 167 -13 251 -48 315 -75 139
-250 203 -398 146z"/>
</g>
</svg>
