<?xml version="1.0" standalone="no"?>
<!DOCTYPE svg PUBLIC "-//W3C//DTD SVG 20010904//EN"
 "http://www.w3.org/TR/2001/REC-SVG-20010904/DTD/svg10.dtd">
<svg version="1.0" xmlns="http://www.w3.org/2000/svg"
 width="980.000000pt" height="982.000000pt" viewBox="0 0 980.000000 982.000000"
 preserveAspectRatio="xMidYMid meet" fill="currentColor">

<g transform="translate(0.000000,982.000000) scale(0.100000,-0.100000)"
>
<path d="M4540 9804 c-19 -3 -125 -16 -235 -29 -584 -73 -1088 -225 -1605
-484 -484 -243 -882 -532 -1275 -926 -592 -592 -1011 -1301 -1239 -2094 -118
-407 -171 -773 -183 -1241 -20 -839 141 -1577 504 -2304 131 -262 271 -488
457 -736 270 -361 645 -738 1001 -1006 1079 -813 2431 -1134 3789 -898 466 81
935 240 1381 468 463 237 843 514 1221 891 210 210 303 316 464 530 463 616
782 1358 909 2115 53 316 65 463 65 820 0 357 -12 504 -65 820 -143 854 -530
1689 -1076 2322 -488 566 -1008 975 -1618 1273 -512 249 -1135 421 -1690 465
-137 11 -745 21 -805 14z m1303 -2295 c106 -14 236 -52 325 -96 87 -43 208
-152 263 -236 66 -102 84 -172 83 -322 -1 -156 -24 -246 -109 -424 -90 -186
-183 -329 -362 -553 -587 -734 -1961 -1901 -2915 -2473 -298 -180 -669 -347
-872 -395 -106 -25 -280 -35 -383 -21 -216 28 -398 193 -470 426 -27 89 -24
414 5 575 40 221 126 465 262 745 127 263 179 325 268 325 76 0 104 -25 237
-215 117 -166 193 -217 245 -165 26 26 27 118 1 175 -10 23 -75 124 -143 226
-153 225 -182 280 -175 326 16 98 294 435 611 740 175 169 236 201 300 159 37
-24 119 -125 279 -346 218 -301 271 -347 332 -285 36 35 34 101 -4 180 -15 33
-88 146 -162 250 -241 343 -266 393 -236 452 43 81 321 276 652 456 247 134
312 162 377 162 54 0 60 -2 103 -45 26 -25 88 -101 138 -170 178 -245 247
-320 293 -320 57 0 88 79 62 161 -9 26 -57 111 -108 189 -85 130 -130 223
-130 267 0 32 38 82 77 101 87 44 299 100 498 132 234 38 458 45 658 19z
m2203 -25 c22 -9 47 -23 58 -32 95 -85 243 -686 291 -1187 19 -191 21 -559 5
-705 -76 -703 -473 -1362 -1048 -1744 -105 -70 -272 -157 -393 -204 -147 -59
-418 -127 -580 -147 -31 -4 -61 -10 -68 -14 -8 -5 -11 -94 -9 -337 l3 -329
180 -12 c490 -34 1039 -119 1179 -182 22 -10 54 -32 70 -49 81 -86 9 -242
-111 -242 -15 0 -115 18 -222 40 -430 89 -611 103 -1266 103 -654 1 -835 -14
-1266 -103 -107 -22 -210 -40 -229 -40 -73 0 -140 70 -140 146 0 57 33 103 99
135 155 78 615 153 1181 192 l175 12 6 30 c4 17 7 166 8 332 l1 303 -22 4
c-13 3 -68 12 -123 21 -311 52 -687 186 -928 331 -179 108 -340 253 -378 340
-38 84 -6 164 79 201 59 25 95 7 255 -123 104 -85 235 -164 412 -250 182 -88
286 -125 442 -158 566 -119 1139 1 1583 333 335 250 599 644 724 1079 71 246
86 395 75 733 -14 422 -60 717 -186 1184 l-56 210 25 45 c19 33 39 52 78 73
29 15 53 27 55 27 1 0 20 -7 41 -16z m-451 -1793 c271 -9 303 -15 343 -66 17
-21 22 -41 22 -86 0 -121 -35 -147 -218 -160 -70 -4 -485 -8 -923 -9 l-796 0
-45 48 c-83 89 -83 139 2 235 l42 47 661 -1 c364 0 775 -4 912 -8z"/>
<path d="M5390 7199 c-154 -15 -333 -50 -344 -68 -3 -4 15 -43 40 -87 25 -43
57 -113 71 -154 21 -64 25 -88 21 -166 -3 -78 -9 -101 -36 -157 -96 -194 -275
-277 -470 -218 -136 41 -184 86 -377 349 -41 56 -86 107 -99 114 -22 10 -40 2
-168 -72 -171 -99 -386 -232 -416 -257 l-21 -18 146 -210 c80 -115 164 -248
187 -295 l41 -85 0 -120 c0 -108 -3 -125 -26 -175 -36 -76 -115 -160 -190
-200 -117 -62 -273 -51 -397 29 -81 53 -166 153 -337 399 -43 61 -81 112 -85
112 -21 0 -480 -507 -480 -531 0 -5 45 -74 99 -152 205 -291 253 -433 202
-596 -49 -157 -155 -253 -313 -282 -85 -16 -170 -1 -265 46 -56 28 -88 54
-147 117 -42 45 -78 79 -80 77 -12 -15 -131 -317 -160 -407 -64 -205 -81 -306
-81 -502 1 -159 3 -180 24 -233 46 -115 107 -158 236 -165 343 -19 980 313
1840 956 863 647 1680 1406 2082 1937 142 187 264 410 298 545 21 82 17 220
-9 268 -42 80 -136 143 -261 176 -131 34 -334 43 -525 25z"/>
</g>
</svg>
