

<svg version="1.0" width="32px" height="32px" viewbox="0 0 2000.000000 2000.000000"
 preserveAspectRatio="xMidYMid meet" fill="currentColor">
<path d="M5125 17919 c-891 -56 -1600 -231 -2247 -554 -424 -212 -756 -447
-1087 -770 -654 -637 -1065 -1424 -1260 -2413 -85 -428 -130 -960 -118 -1402
14 -506 97 -945 279 -1480 328 -963 755 -1667 1662 -2740 140 -165 318 -348
561 -575 82 -77 1614 -1553 3405 -3280 1791 -1727 3288 -3170 3327 -3206 131
-120 262 -169 452 -169 160 0 283 39 397 126 80 61 6775 6512 6993 6738 1299
1347 2040 2663 2240 3979 36 231 51 456 51 737 0 718 -94 1344 -290 1930 -225
677 -567 1236 -1049 1717 -774 772 -1794 1216 -3071 1337 -853 81 -1430 29
-2105 -191 -494 -161 -931 -377 -1425 -706 -663 -442 -1160 -834 -1602 -1265
l-137 -134 -203 190 c-492 460 -949 816 -1570 1226 -242 159 -365 233 -541
326 -562 295 -1155 487 -1727 561 -189 24 -690 34 -935 18z"/>
</svg>
